<svg width="49" height="48" viewBox="0 0 49 48" fill="none" xmlns="http://www.w3.org/2000/svg">
<path d="M14.3244 7.91577C14.3203 8.19243 14.2345 8.46168 14.0777 8.6897C13.921 8.91772 13.7004 9.09433 13.4436 9.19734C13.1868 9.30035 12.9053 9.32515 12.6344 9.26865C12.3636 9.21214 12.1155 9.07683 11.9213 8.87973C11.7271 8.68264 11.5955 8.43254 11.543 8.16088C11.4906 7.88922 11.5196 7.6081 11.6264 7.35287C11.7332 7.09764 11.9131 6.87967 12.1434 6.72636C12.3737 6.57305 12.6442 6.49124 12.9209 6.49121C13.2956 6.4951 13.6535 6.6471 13.9165 6.91402C14.1795 7.18094 14.3261 7.54108 14.3244 7.91577Z" fill="#D80000"/>
<path d="M10.114 7.91577C10.1098 8.19243 10.024 8.46168 9.86729 8.6897C9.71057 8.91772 9.48995 9.09433 9.23315 9.19734C8.97636 9.30035 8.69484 9.32515 8.42399 9.26865C8.15314 9.21214 7.90503 9.07683 7.71085 8.87973C7.51666 8.68264 7.38507 8.43254 7.3326 8.16088C7.28013 7.88922 7.30912 7.6081 7.41594 7.35287C7.52276 7.09764 7.70264 6.87967 7.93296 6.72636C8.16329 6.57305 8.4338 6.49124 8.71048 6.49121C9.08516 6.4951 9.44307 6.6471 9.70605 6.91402C9.96902 7.18094 10.1157 7.54108 10.114 7.91577Z" fill="#D80000"/>
<path d="M18.5349 7.91577C18.5307 8.19243 18.4449 8.46168 18.2882 8.6897C18.1315 8.91772 17.9108 9.09433 17.6541 9.19734C17.3973 9.30035 17.1157 9.32515 16.8449 9.26865C16.574 9.21214 16.3259 9.07683 16.1317 8.87973C15.9376 8.68264 15.806 8.43254 15.7535 8.16088C15.701 7.88922 15.73 7.6081 15.8368 7.35287C15.9437 7.09764 16.1235 6.87967 16.3539 6.72636C16.5842 6.57305 16.8547 6.49124 17.1314 6.49121C17.5061 6.4951 17.864 6.6471 18.1269 6.91402C18.3899 7.18094 18.5366 7.54108 18.5349 7.91577Z" fill="#D80000"/>
<path d="M43.0965 4H5.90351C5.53162 4.00111 5.17527 4.14934 4.91231 4.41231C4.64934 4.67527 4.50111 5.03162 4.5 5.40351V42.5965C4.50111 42.9684 4.64934 43.3247 4.91231 43.5877C5.17527 43.8507 5.53162 43.9989 5.90351 44H43.0965C43.4684 43.9989 43.8247 43.8507 44.0877 43.5877C44.3507 43.3247 44.4989 42.9684 44.5 42.5965V5.40351C44.4989 5.03162 44.3507 4.67527 44.0877 4.41231C43.8247 4.14934 43.4684 4.00111 43.0965 4ZM43.0965 42.5965H5.90351V11.8386H43.0965V42.5965ZM43.0965 10.4351H5.90351V5.40351H43.0965V10.4351Z" fill="#D80000"/>
<path d="M41.4896 8.49828C41.6193 8.63069 41.6914 8.80907 41.6901 8.99446C41.6888 9.17986 41.6142 9.3572 41.4825 9.48775C41.4188 9.55323 41.3423 9.60503 41.2579 9.64002C41.1734 9.67501 41.0827 9.69244 40.9913 9.69126C40.8983 9.69183 40.8062 9.67346 40.7205 9.63727C40.6349 9.60107 40.5575 9.54781 40.4931 9.48073L39.9387 8.91933L39.3843 9.48073C39.3199 9.54781 39.2425 9.60107 39.1568 9.63727C39.0712 9.67346 38.979 9.69183 38.886 9.69126C38.7946 9.69244 38.704 9.67501 38.6195 9.64002C38.5351 9.60503 38.4586 9.55323 38.3948 9.48775C38.2632 9.3572 38.1886 9.17986 38.1872 8.99446C38.1859 8.80907 38.258 8.63069 38.3878 8.49828L38.9562 7.91582L38.3878 7.34038C38.2573 7.20696 38.1847 7.02735 38.1861 6.84069C38.1874 6.65403 38.2624 6.47546 38.3948 6.34389C38.5272 6.21412 38.7056 6.14201 38.891 6.14333C39.0764 6.14464 39.2537 6.21927 39.3843 6.35091L39.9387 6.91933L40.4931 6.35091C40.6236 6.21927 40.801 6.14464 40.9864 6.14333C41.1718 6.14201 41.3501 6.21412 41.4825 6.34389C41.615 6.47546 41.69 6.65403 41.6913 6.84069C41.6926 7.02735 41.6201 7.20696 41.4896 7.34038L40.9211 7.91582L41.4896 8.49828Z" fill="#D80000"/>
<path d="M36.7808 7.91587C36.7808 8.10198 36.7069 8.28048 36.5753 8.41208C36.4437 8.54369 36.2652 8.61762 36.0791 8.61762H33.2721C33.0859 8.61762 32.9075 8.54369 32.7759 8.41208C32.6442 8.28048 32.5703 8.10198 32.5703 7.91587C32.5703 7.72975 32.6442 7.55126 32.7759 7.41965C32.9075 7.28805 33.0859 7.21411 33.2721 7.21411H36.0791C36.2652 7.21411 36.4437 7.28805 36.5753 7.41965C36.7069 7.55126 36.7808 7.72975 36.7808 7.91587Z" fill="#D80000"/>
<path d="M16.1844 31.6422L18.7318 30.1755H31.1318C31.5015 30.1736 31.8637 30.0706 32.1791 29.8776C32.4945 29.6846 32.7512 29.4091 32.9213 29.0808L36.9002 21.565C37.0853 21.2107 37.1688 20.8122 37.1416 20.4134C37.1144 20.0146 36.9774 19.6312 36.7458 19.3054L36.2406 18.5896C36.0538 18.3274 35.8077 18.1132 35.5223 17.9644C35.2369 17.8155 34.9203 17.7364 34.5984 17.7334H34.5914L18.0511 17.7755L17.9458 16.6948C17.8983 16.1613 17.6545 15.6643 17.2618 15.3001C16.869 14.9358 16.3551 14.7302 15.8195 14.7229H11.8546C11.6685 14.7229 11.49 14.7968 11.3584 14.9284C11.2268 15.06 11.1528 15.2385 11.1528 15.4247C11.1528 15.6108 11.2268 15.7893 11.3584 15.9209C11.49 16.0525 11.6685 16.1264 11.8546 16.1264H15.8195C16.008 16.1347 16.1868 16.2124 16.3215 16.3445C16.4563 16.4766 16.5374 16.6539 16.5493 16.8422L17.7984 29.0948L15.4335 30.4633C15.1413 30.669 14.9031 30.9424 14.7394 31.2601C14.5756 31.5778 14.4912 31.9304 14.4932 32.2878V32.4843C14.4879 33.0329 14.6893 33.5634 15.0572 33.9704C15.4252 34.3773 15.9328 34.6309 16.4791 34.6808C16.1207 35.2191 15.9302 35.8517 15.9318 36.4983C15.9164 36.9139 15.985 37.3283 16.1335 37.7167C16.2819 38.1051 16.5072 38.4596 16.7957 38.759C17.0843 39.0584 17.4302 39.2966 17.8129 39.4593C18.1956 39.6219 18.6072 39.7058 19.023 39.7058C19.4388 39.7058 19.8504 39.6219 20.2331 39.4593C20.6158 39.2966 20.9617 39.0584 21.2503 38.759C21.5389 38.4596 21.7641 38.1051 21.9125 37.7167C22.061 37.3283 22.1296 36.9139 22.1142 36.4983C22.1138 35.8573 21.926 35.2305 21.5739 34.6948H27.9388C27.5835 35.229 27.3954 35.8568 27.3984 36.4983C27.3831 36.9139 27.4517 37.3283 27.6001 37.7167C27.7486 38.1051 27.9738 38.4596 28.2624 38.759C28.5509 39.0584 28.8969 39.2966 29.2796 39.4593C29.6623 39.6219 30.0738 39.7058 30.4897 39.7058C30.9055 39.7058 31.3171 39.6219 31.6998 39.4593C32.0824 39.2966 32.4284 39.0584 32.717 38.759C33.0055 38.4596 33.2308 38.1051 33.3792 37.7167C33.5276 37.3283 33.5962 36.9139 33.5809 36.4983C33.5805 35.8573 33.3927 35.2305 33.0406 34.6948H34.3107C34.4968 34.6948 34.6753 34.6209 34.8069 34.4893C34.9385 34.3577 35.0125 34.1792 35.0125 33.9931C35.0125 33.807 34.9385 33.6285 34.8069 33.4969C34.6753 33.3653 34.4968 33.2913 34.3107 33.2913H16.6335C16.4292 33.281 16.2372 33.1904 16.0992 33.0393C15.9613 32.8882 15.8885 32.6887 15.8967 32.4843V32.2878C15.8955 32.1659 15.9206 32.0451 15.9702 31.9337C16.0199 31.8223 16.0929 31.7229 16.1844 31.6422ZM31.6862 28.4211C31.6338 28.5241 31.5547 28.611 31.4572 28.6727C31.3596 28.7345 31.2472 28.7688 31.1318 28.772H19.1739L18.4511 21.6562L35.2651 21.6492L31.6862 28.4211ZM34.5914 19.1369H34.5984C34.6968 19.1379 34.7935 19.1627 34.8803 19.2092C34.967 19.2556 35.0413 19.3223 35.0967 19.4036L35.609 20.1194C35.63 20.1545 35.6511 20.1966 35.6721 20.2387L18.3037 20.2527L18.1984 19.179L34.5914 19.1369ZM30.4862 34.6948C30.8491 34.6693 31.2112 34.7537 31.5255 34.9369C31.8397 35.1201 32.0915 35.3938 32.2481 35.7221C32.4047 36.0505 32.4587 36.4184 32.4032 36.7779C32.3477 37.1374 32.1852 37.4719 31.9369 37.7378C31.6887 38.0037 31.3661 38.1886 31.0112 38.2686C30.6563 38.3485 30.2855 38.3197 29.9472 38.186C29.6089 38.0522 29.3188 37.8197 29.1145 37.5187C28.9102 37.2177 28.8013 36.8621 28.802 36.4983C28.7875 36.0362 28.9566 35.5872 29.2721 35.2493C29.5877 34.9114 30.0241 34.712 30.4862 34.6948ZM19.0195 34.6948C19.3824 34.6693 19.7445 34.7537 20.0588 34.9369C20.3731 35.1201 20.6249 35.3938 20.7814 35.7221C20.938 36.0505 20.992 36.4184 20.9365 36.7779C20.881 37.1374 20.7186 37.4719 20.4703 37.7378C20.222 38.0037 19.8994 38.1886 19.5445 38.2686C19.1896 38.3485 18.8189 38.3197 18.4806 38.186C18.1423 38.0522 17.8521 37.8197 17.6478 37.5187C17.4435 37.2177 17.3346 36.8621 17.3353 36.4983C17.3209 36.0362 17.4899 35.5872 17.8055 35.2493C18.121 34.9114 18.5575 34.712 19.0195 34.6948Z" fill="#D80000"/>
</svg>
