<svg width="49" height="48" viewBox="0 0 49 48" fill="none" xmlns="http://www.w3.org/2000/svg">
<path d="M24.4998 31.3068V36.3068C24.4998 36.4068 24.4998 36.4068 24.4998 36.5068C24.4998 36.6068 24.4998 36.6068 24.3998 36.7068C24.3998 36.8068 24.2998 36.8068 24.2998 36.9068C24.2998 37.0068 24.1998 37.0068 24.1998 37.1068C24.0998 37.2068 23.9998 37.3068 23.8998 37.4068C23.8998 37.4068 23.7998 37.5068 23.6998 37.5068C23.5998 37.5068 23.5998 37.6068 23.4998 37.6068C23.3998 37.6068 23.2998 37.7068 23.2998 37.7068C23.1998 37.8068 22.9998 37.8068 22.8998 37.9068C22.6998 38.0068 22.4998 38.1068 22.3998 38.1068C22.2998 38.1068 22.1998 38.2068 22.0998 38.2068C21.8998 38.3068 21.7998 38.3068 21.5998 38.4068C21.3998 38.5068 21.0998 38.5068 20.8998 38.6068C20.7998 38.6068 20.6998 38.7068 20.5998 38.7068C20.3998 38.7068 20.2998 38.8068 20.0998 38.8068C19.7998 38.9068 19.4998 38.9068 19.0998 39.0068C18.7998 39.0068 18.4998 39.1068 18.1998 39.1068C17.7998 39.2068 17.3998 39.2068 16.8998 39.2068C16.6998 39.2068 16.5998 39.2068 16.3998 39.2068C16.0998 39.2068 15.7998 39.2068 15.5998 39.2068C15.2998 39.2068 14.8998 39.2068 14.5998 39.2068C14.2998 39.2068 13.8998 39.2068 13.5998 39.2068C13.2998 39.2068 12.9998 39.2068 12.7998 39.2068C12.5998 39.2068 12.4998 39.2068 12.2998 39.2068C11.8998 39.2068 11.3998 39.1068 10.9998 39.1068C10.6998 39.1068 10.3998 39.0068 10.0998 39.0068C9.7998 39.0068 9.3998 38.9068 9.0998 38.8068C8.8998 38.8068 8.7998 38.7068 8.5998 38.7068C8.4998 38.7068 8.3998 38.7068 8.2998 38.6068C7.9998 38.5068 7.7998 38.5068 7.5998 38.4068C7.3998 38.4068 7.2998 38.3068 7.0998 38.2068C6.9998 38.2068 6.8998 38.1068 6.7998 38.1068C6.5998 38.0068 6.3998 38.0068 6.2998 37.9068C6.1998 37.8068 5.9998 37.8068 5.8998 37.7068C5.6998 37.6068 5.5998 37.5068 5.4998 37.4068C5.3998 37.4068 5.3998 37.3068 5.2998 37.3068C5.1998 37.2068 5.0998 37.1068 4.9998 37.0068C4.9998 36.9068 4.8998 36.9068 4.8998 36.8068C4.8998 36.7068 4.7998 36.7068 4.7998 36.6068C4.7998 36.6068 4.7998 36.5068 4.7998 36.4068C4.7998 36.3068 4.7998 36.3068 4.7998 36.2068V31.2068C4.7998 31.3068 4.7998 31.3068 4.7998 31.4068C4.7998 31.5068 4.7998 31.5068 4.7998 31.6068C4.7998 31.7068 4.8998 31.7068 4.8998 31.8068C4.8998 31.9068 4.9998 31.9068 4.9998 32.0068C5.0998 32.1068 5.1998 32.2068 5.2998 32.3068C5.3998 32.3068 5.3998 32.4068 5.4998 32.4068C5.5998 32.5068 5.7998 32.6068 5.8998 32.7068C5.9998 32.8068 6.1998 32.8068 6.2998 32.9068C6.4998 33.0068 6.5998 33.1068 6.7998 33.1068C6.8998 33.1068 6.9998 33.2068 7.0998 33.2068C7.2998 33.3068 7.3998 33.3068 7.5998 33.4068C7.7998 33.5068 8.0998 33.5068 8.2998 33.6068C8.3998 33.6068 8.4998 33.7068 8.5998 33.7068C8.6998 33.7068 8.8998 33.8068 9.0998 33.8068C9.3998 33.9068 9.6998 33.9068 10.0998 34.0068C10.3998 34.0068 10.6998 34.1068 10.9998 34.1068C11.3998 34.2068 11.7998 34.2068 12.2998 34.2068C12.4998 34.2068 12.5998 34.2068 12.7998 34.2068C13.0998 34.2068 13.2998 34.2068 13.5998 34.2068C13.8998 34.2068 14.2998 34.2068 14.5998 34.2068C14.8998 34.2068 15.2998 34.2068 15.5998 34.2068C15.8998 34.2068 16.1998 34.2068 16.3998 34.2068C16.5998 34.2068 16.6998 34.2068 16.8998 34.2068C17.2998 34.2068 17.7998 34.1068 18.1998 34.1068C18.4998 34.1068 18.7998 34.0068 19.0998 34.0068C19.3998 34.0068 19.7998 33.9068 20.0998 33.8068C20.2998 33.8068 20.3998 33.7068 20.5998 33.7068C20.6998 33.7068 20.7998 33.7068 20.8998 33.6068C21.1998 33.5068 21.3998 33.5068 21.5998 33.4068C21.7998 33.4068 21.8998 33.3068 22.0998 33.2068C22.1998 33.2068 22.2998 33.1068 22.3998 33.1068C22.5998 33.0068 22.7998 33.0068 22.8998 32.9068C22.9998 32.8068 23.1998 32.8068 23.2998 32.7068C23.3998 32.7068 23.3998 32.6068 23.4998 32.6068C23.5998 32.6068 23.5998 32.5068 23.6998 32.5068C23.7998 32.5068 23.7998 32.4068 23.8998 32.4068C23.9998 32.3068 24.0998 32.2068 24.1998 32.1068C24.2998 32.0068 24.2998 32.0068 24.2998 31.9068C24.2998 31.8068 24.3998 31.8068 24.3998 31.7068C24.3998 31.7068 24.3998 31.6068 24.4998 31.5068C24.4998 31.4068 24.4998 31.3068 24.4998 31.3068Z" fill="white" stroke="#D80000" stroke-miterlimit="10"/>
<path d="M44.4998 31.3068V36.3068C44.4998 36.4068 44.4998 36.4068 44.4998 36.5068C44.4998 36.6068 44.4998 36.6068 44.3998 36.7068C44.3998 36.8068 44.2998 36.8068 44.2998 36.9068C44.2998 37.0068 44.1998 37.0068 44.1998 37.1068C44.0998 37.2068 43.9998 37.3068 43.8998 37.4068C43.8998 37.4068 43.7998 37.5068 43.6998 37.5068C43.5998 37.5068 43.5998 37.6068 43.4998 37.6068C43.3998 37.6068 43.2998 37.7068 43.2998 37.7068C43.1998 37.8068 42.9998 37.8068 42.8998 37.9068C42.6998 38.0068 42.4998 38.1068 42.3998 38.1068C42.2998 38.1068 42.1998 38.2068 42.0998 38.2068C41.8998 38.3068 41.7998 38.3068 41.5998 38.4068C41.3998 38.5068 41.0998 38.5068 40.8998 38.6068C40.7998 38.6068 40.6998 38.7068 40.5998 38.7068C40.3998 38.7068 40.2998 38.8068 40.0998 38.8068C39.7998 38.9068 39.4998 38.9068 39.0998 39.0068C38.7998 39.0068 38.4998 39.1068 38.1998 39.1068C37.7998 39.2068 37.3998 39.2068 36.8998 39.2068C36.6998 39.2068 36.5998 39.2068 36.3998 39.2068C36.0998 39.2068 35.7998 39.2068 35.5998 39.2068C35.2998 39.2068 34.8998 39.2068 34.5998 39.2068C34.2998 39.2068 33.8998 39.2068 33.5998 39.2068C33.2998 39.2068 32.9998 39.2068 32.7998 39.2068C32.5998 39.2068 32.4998 39.2068 32.2998 39.2068C31.8998 39.2068 31.3998 39.1068 30.9998 39.1068C30.6998 39.1068 30.3998 39.0068 30.0998 39.0068C29.7998 39.0068 29.3998 38.9068 29.0998 38.8068C28.8998 38.8068 28.7998 38.7068 28.5998 38.7068C28.4998 38.7068 28.3998 38.7068 28.2998 38.6068C27.9998 38.5068 27.7998 38.5068 27.5998 38.4068C27.3998 38.4068 27.2998 38.3068 27.0998 38.2068C26.9998 38.2068 26.8998 38.1068 26.7998 38.1068C26.5998 38.0068 26.3998 38.0068 26.2998 37.9068C26.1998 37.8068 25.9998 37.8068 25.8998 37.7068C25.6998 37.6068 25.5998 37.5068 25.4998 37.4068C25.3998 37.4068 25.3998 37.3068 25.2998 37.3068C25.1998 37.2068 25.0998 37.1068 24.9998 37.0068C24.9998 36.9068 24.8998 36.9068 24.8998 36.8068C24.8998 36.7068 24.7998 36.7068 24.7998 36.6068C24.7998 36.6068 24.7998 36.5068 24.7998 36.4068C24.7998 36.3068 24.7998 36.3068 24.7998 36.2068V31.2068C24.7998 31.3068 24.7998 31.3068 24.7998 31.4068C24.7998 31.5068 24.7998 31.5068 24.7998 31.6068C24.7998 31.7068 24.8998 31.7068 24.8998 31.8068C24.8998 31.9068 24.9998 31.9068 24.9998 32.0068C25.0998 32.1068 25.1998 32.2068 25.2998 32.3068C25.3998 32.3068 25.3998 32.4068 25.4998 32.4068C25.5998 32.5068 25.7998 32.6068 25.8998 32.7068C25.9998 32.8068 26.1998 32.8068 26.2998 32.9068C26.4998 33.0068 26.5998 33.1068 26.7998 33.1068C26.8998 33.1068 26.9998 33.2068 27.0998 33.2068C27.2998 33.3068 27.3998 33.3068 27.5998 33.4068C27.7998 33.5068 28.0998 33.5068 28.2998 33.6068C28.3998 33.6068 28.4998 33.7068 28.5998 33.7068C28.6998 33.7068 28.8998 33.8068 29.0998 33.8068C29.3998 33.9068 29.6998 33.9068 30.0998 34.0068C30.3998 34.0068 30.6998 34.1068 30.9998 34.1068C31.3998 34.2068 31.7998 34.2068 32.2998 34.2068C32.4998 34.2068 32.5998 34.2068 32.7998 34.2068C33.0998 34.2068 33.2998 34.2068 33.5998 34.2068C33.8998 34.2068 34.2998 34.2068 34.5998 34.2068C34.8998 34.2068 35.2998 34.2068 35.5998 34.2068C35.8998 34.2068 36.1998 34.2068 36.3998 34.2068C36.5998 34.2068 36.6998 34.2068 36.8998 34.2068C37.2998 34.2068 37.7998 34.1068 38.1998 34.1068C38.4998 34.1068 38.7998 34.0068 39.0998 34.0068C39.3998 34.0068 39.7998 33.9068 40.0998 33.8068C40.2998 33.8068 40.3998 33.7068 40.5998 33.7068C40.6998 33.7068 40.7998 33.7068 40.8998 33.6068C41.1998 33.5068 41.3998 33.5068 41.5998 33.4068C41.7998 33.4068 41.8998 33.3068 42.0998 33.2068C42.1998 33.2068 42.2998 33.1068 42.3998 33.1068C42.5998 33.0068 42.7998 33.0068 42.8998 32.9068C42.9998 32.8068 43.1998 32.8068 43.2998 32.7068C43.3998 32.7068 43.3998 32.6068 43.4998 32.6068C43.5998 32.6068 43.5998 32.5068 43.6998 32.5068C43.7998 32.5068 43.7998 32.4068 43.8998 32.4068C43.9998 32.3068 44.0998 32.2068 44.1998 32.1068C44.2998 32.0068 44.2998 32.0068 44.2998 31.9068C44.2998 31.8068 44.3998 31.8068 44.3998 31.7068C44.3998 31.7068 44.3998 31.6068 44.4998 31.5068C44.4998 31.4068 44.4998 31.3068 44.4998 31.3068Z" fill="white" stroke="#D80000" stroke-miterlimit="10"/>
<path d="M24.4998 26.3068V31.3068C24.4998 31.4068 24.4998 31.4068 24.4998 31.5068C24.4998 31.6068 24.4998 31.6068 24.3998 31.7068C24.3998 31.8068 24.2998 31.8068 24.2998 31.9068C24.2998 32.0068 24.1998 32.0068 24.1998 32.1068C24.0998 32.2068 23.9998 32.3068 23.8998 32.4068C23.8998 32.4068 23.7998 32.5068 23.6998 32.5068C23.5998 32.5068 23.5998 32.6068 23.4998 32.6068C23.3998 32.6068 23.2998 32.7068 23.2998 32.7068C23.1998 32.8068 22.9998 32.8068 22.8998 32.9068C22.6998 33.0068 22.4998 33.1068 22.3998 33.1068C22.2998 33.1068 22.1998 33.2068 22.0998 33.2068C21.8998 33.3068 21.7998 33.3068 21.5998 33.4068C21.3998 33.5068 21.0998 33.5068 20.8998 33.6068C20.7998 33.6068 20.6998 33.7068 20.5998 33.7068C20.3998 33.7068 20.2998 33.8068 20.0998 33.8068C19.7998 33.9068 19.4998 33.9068 19.0998 34.0068C18.7998 34.0068 18.4998 34.1068 18.1998 34.1068C17.7998 34.2068 17.3998 34.2068 16.8998 34.2068C16.6998 34.2068 16.5998 34.2068 16.3998 34.2068C16.0998 34.2068 15.7998 34.2068 15.5998 34.2068C15.2998 34.2068 14.8998 34.2068 14.5998 34.2068C14.2998 34.2068 13.8998 34.2068 13.5998 34.2068C13.2998 34.2068 12.9998 34.2068 12.7998 34.2068C12.5998 34.2068 12.4998 34.2068 12.2998 34.2068C11.8998 34.2068 11.3998 34.1068 10.9998 34.1068C10.6998 34.1068 10.3998 34.0068 10.0998 34.0068C9.7998 34.0068 9.3998 33.9068 9.0998 33.8068C8.8998 33.8068 8.7998 33.7068 8.5998 33.7068C8.4998 33.7068 8.3998 33.7068 8.2998 33.6068C7.9998 33.5068 7.7998 33.5068 7.5998 33.4068C7.3998 33.4068 7.2998 33.3068 7.0998 33.2068C6.9998 33.2068 6.8998 33.1068 6.7998 33.1068C6.5998 33.0068 6.3998 33.0068 6.2998 32.9068C6.1998 32.8068 5.9998 32.8068 5.8998 32.7068C5.6998 32.6068 5.5998 32.5068 5.4998 32.4068C5.3998 32.4068 5.3998 32.3068 5.2998 32.3068C5.1998 32.2068 5.0998 32.1068 4.9998 32.0068C4.9998 31.9068 4.8998 31.9068 4.8998 31.8068C4.8998 31.7068 4.7998 31.7068 4.7998 31.6068C4.7998 31.6068 4.7998 31.5068 4.7998 31.4068C4.7998 31.3068 4.7998 31.3068 4.7998 31.2068V26.2068C4.7998 26.3068 4.7998 26.3068 4.7998 26.4068C4.7998 26.5068 4.7998 26.5068 4.7998 26.6068C4.7998 26.7068 4.8998 26.7068 4.8998 26.8068C4.8998 26.9068 4.9998 26.9068 4.9998 27.0068C5.0998 27.1068 5.1998 27.2068 5.2998 27.3068C5.3998 27.3068 5.3998 27.4068 5.4998 27.4068C5.5998 27.5068 5.7998 27.6068 5.8998 27.7068C5.9998 27.8068 6.1998 27.8068 6.2998 27.9068C6.4998 28.0068 6.5998 28.1068 6.7998 28.1068C6.8998 28.1068 6.9998 28.2068 7.0998 28.2068C7.2998 28.3068 7.3998 28.3068 7.5998 28.4068C7.7998 28.5068 8.0998 28.5068 8.2998 28.6068C8.3998 28.6068 8.4998 28.7068 8.5998 28.7068C8.6998 28.7068 8.8998 28.8068 9.0998 28.8068C9.3998 28.9068 9.6998 28.9068 10.0998 29.0068C10.3998 29.0068 10.6998 29.1068 10.9998 29.1068C11.3998 29.2068 11.7998 29.2068 12.2998 29.2068C12.4998 29.2068 12.5998 29.2068 12.7998 29.2068C13.0998 29.2068 13.2998 29.2068 13.5998 29.2068C13.8998 29.2068 14.2998 29.2068 14.5998 29.2068C14.8998 29.2068 15.2998 29.2068 15.5998 29.2068C15.8998 29.2068 16.1998 29.2068 16.3998 29.2068C16.5998 29.2068 16.6998 29.2068 16.8998 29.2068C17.2998 29.2068 17.7998 29.1068 18.1998 29.1068C18.4998 29.1068 18.7998 29.0068 19.0998 29.0068C19.3998 29.0068 19.7998 28.9068 20.0998 28.8068C20.2998 28.8068 20.3998 28.7068 20.5998 28.7068C20.6998 28.7068 20.7998 28.7068 20.8998 28.6068C21.1998 28.5068 21.3998 28.5068 21.5998 28.4068C21.7998 28.4068 21.8998 28.3068 22.0998 28.2068C22.1998 28.2068 22.2998 28.1068 22.3998 28.1068C22.5998 28.0068 22.7998 28.0068 22.8998 27.9068C22.9998 27.8068 23.1998 27.8068 23.2998 27.7068C23.3998 27.7068 23.3998 27.6068 23.4998 27.6068C23.5998 27.6068 23.5998 27.5068 23.6998 27.5068C23.7998 27.5068 23.7998 27.4068 23.8998 27.4068C23.9998 27.3068 24.0998 27.2068 24.1998 27.1068C24.2998 27.0068 24.2998 27.0068 24.2998 26.9068C24.2998 26.8068 24.3998 26.8068 24.3998 26.7068C24.3998 26.7068 24.3998 26.6068 24.4998 26.5068C24.4998 26.4068 24.4998 26.3068 24.4998 26.3068Z" fill="white" stroke="#D80000" stroke-miterlimit="10"/>
<path d="M24.5 21.3069C24.5 22.3069 22.7 23.3069 20 23.8069C18.5 24.1069 16.5 24.3069 14.5 24.3069C12.5 24.3069 10.5 24.1069 9 23.8069C6.3 23.3069 4.5 22.3069 4.5 21.3069C4.5 19.6069 9 18.3069 14.5 18.3069C17.7 18.3069 20.5 18.8069 22.4 19.5069C22.6 19.7069 22.8 19.8069 23 20.0069C23.2 20.2069 23.5 20.4069 23.7 20.6069C24 20.8069 24.2 21.0069 24.5 21.2069C24.5 21.1069 24.5 21.2069 24.5 21.3069Z" stroke="#D80000" stroke-miterlimit="10"/>
<path d="M24.4998 21.3068V26.3068C24.4998 26.4068 24.4998 26.4068 24.4998 26.5068C24.4998 26.6068 24.4998 26.6068 24.3998 26.7068C24.3998 26.8068 24.2998 26.8068 24.2998 26.9068C24.2998 27.0068 24.1998 27.0068 24.1998 27.1068C24.0998 27.2068 23.9998 27.3068 23.8998 27.4068C23.8998 27.4068 23.7998 27.5068 23.6998 27.5068C23.5998 27.5068 23.5998 27.6068 23.4998 27.6068C23.3998 27.6068 23.2998 27.7068 23.2998 27.7068C23.1998 27.8068 22.9998 27.8068 22.8998 27.9068C22.6998 28.0068 22.4998 28.1068 22.3998 28.1068C22.2998 28.1068 22.1998 28.2068 22.0998 28.2068C21.8998 28.3068 21.7998 28.3068 21.5998 28.4068C21.3998 28.5068 21.0998 28.5068 20.8998 28.6068C20.7998 28.6068 20.6998 28.7068 20.5998 28.7068C20.3998 28.7068 20.2998 28.8068 20.0998 28.8068C19.7998 28.9068 19.4998 28.9068 19.0998 29.0068C18.7998 29.0068 18.4998 29.1068 18.1998 29.1068C17.7998 29.2068 17.3998 29.2068 16.8998 29.2068C16.6998 29.2068 16.5998 29.2068 16.3998 29.2068C16.0998 29.2068 15.7998 29.2068 15.5998 29.2068C15.2998 29.2068 14.8998 29.2068 14.5998 29.2068C14.2998 29.2068 13.8998 29.2068 13.5998 29.2068C13.2998 29.2068 12.9998 29.2068 12.7998 29.2068C12.5998 29.2068 12.4998 29.2068 12.2998 29.2068C11.8998 29.2068 11.3998 29.1068 10.9998 29.1068C10.6998 29.1068 10.3998 29.0068 10.0998 29.0068C9.7998 29.0068 9.3998 28.9068 9.0998 28.8068C8.8998 28.8068 8.7998 28.7068 8.5998 28.7068C8.4998 28.7068 8.3998 28.7068 8.2998 28.6068C7.9998 28.5068 7.7998 28.5068 7.5998 28.4068C7.3998 28.4068 7.2998 28.3068 7.0998 28.2068C6.9998 28.2068 6.8998 28.1068 6.7998 28.1068C6.5998 28.0068 6.3998 28.0068 6.2998 27.9068C6.1998 27.8068 5.9998 27.8068 5.8998 27.7068C5.6998 27.6068 5.5998 27.5068 5.4998 27.4068C5.3998 27.4068 5.3998 27.3068 5.2998 27.3068C5.1998 27.2068 5.0998 27.1068 4.9998 27.0068C4.9998 26.9068 4.8998 26.9068 4.8998 26.8068C4.8998 26.7068 4.7998 26.7068 4.7998 26.6068C4.7998 26.6068 4.7998 26.5068 4.7998 26.4068C4.7998 26.3068 4.7998 26.3068 4.7998 26.2068V21.2068C4.7998 22.2068 6.5998 23.2068 9.2998 23.7068C10.8998 24.0068 12.7998 24.2068 14.7998 24.2068C16.7998 24.2068 18.7998 24.0068 20.2998 23.7068C22.6998 23.2068 24.4998 22.3068 24.4998 21.3068Z" stroke="#D80000" stroke-miterlimit="10"/>
<path d="M39.4001 20.7069C38.9001 21.6069 36.9001 21.5069 34.3001 20.6069C32.8001 20.1069 31.0001 19.3069 29.3001 18.2069C27.5001 17.2069 26.0001 16.0069 24.8001 15.0069C22.8001 13.2069 21.7001 11.5069 22.2001 10.6069C23.0001 9.20686 27.6001 10.3069 32.3001 13.1069C37.0001 15.8069 40.2001 19.3069 39.4001 20.7069Z" stroke="#D80000" stroke-miterlimit="10" stroke-linecap="round" stroke-linejoin="round"/>
<path d="M39.4001 20.7069L37.8001 23.5069L36.9001 25.1069C36.9001 25.2069 36.8001 25.2069 36.8001 25.3069L36.7001 25.4069C36.6001 25.4069 36.6001 25.5069 36.5001 25.5069C36.4001 25.5069 36.4001 25.5069 36.3001 25.6069C36.2001 25.6069 36.0001 25.7069 35.9001 25.7069C35.8001 25.7069 35.8001 25.7069 35.7001 25.7069C35.6001 25.7069 35.5001 25.7069 35.5001 25.7069C35.4001 25.7069 35.3001 25.7069 35.2001 25.7069C35.1001 25.7069 34.9001 25.7069 34.8001 25.7069C34.6001 25.7069 34.4001 25.7069 34.2001 25.6069C34.1001 25.6069 34.0001 25.6069 33.9001 25.5069C33.7001 25.5069 33.6001 25.4069 33.4001 25.4069C33.2001 25.3069 32.9001 25.3069 32.7001 25.2069C32.6001 25.2069 32.5001 25.1069 32.4001 25.1069C32.2001 25.1069 32.1001 25.0069 31.9001 25.0069C31.6001 24.9069 31.3001 24.8069 31.0001 24.7069C30.7001 24.6069 30.4001 24.5069 30.1001 24.3069C29.8001 24.2069 29.5001 24.0069 29.2001 23.9069C29.1001 23.9069 29.0001 23.8069 28.9001 23.8069C28.7001 23.7069 28.6001 23.7069 28.4001 23.6069C28.2001 23.5069 27.9001 23.3069 27.7001 23.2069C27.4001 23.0069 27.1001 22.9069 26.8001 22.7069C26.5001 22.5069 26.2001 22.3069 25.9001 22.2069C25.7001 22.0069 25.4001 21.9069 25.2001 21.7069C25.1001 21.6069 24.9001 21.5069 24.8001 21.4069C24.7001 21.3069 24.6001 21.3069 24.6001 21.2069C24.3001 21.0069 24.1001 20.8069 23.8001 20.6069C23.5001 20.4069 23.3001 20.2069 23.1001 20.0069C22.9001 19.8069 22.7001 19.7069 22.5001 19.5069C22.4001 19.4069 22.4001 19.4069 22.3001 19.3069C22.2001 19.2069 22.1001 19.1069 21.9001 19.0069C21.8001 18.9069 21.7001 18.8069 21.7001 18.8069C21.5001 18.6069 21.4001 18.5069 21.2001 18.3069C21.1001 18.2069 21.0001 18.0069 20.9001 17.9069C20.7001 17.7069 20.6001 17.6069 20.5001 17.6069C20.4001 17.4069 20.2001 17.3069 20.2001 17.1069C20.1001 17.0069 20.0001 16.8069 20.0001 16.7069C19.9001 16.6069 19.8001 16.4069 19.8001 16.3069C19.8001 16.2069 19.7001 16.2069 19.7001 16.1069C19.6001 16.0069 19.6001 15.8069 19.6001 15.7069C19.6001 15.6069 19.6001 15.5069 19.6001 15.5069C19.6001 15.4069 19.6001 15.3069 19.6001 15.3069C19.6001 15.3069 19.6001 15.2069 19.6001 15.1069C19.6001 15.0069 19.6001 15.0069 19.7001 14.9069L22.2001 10.6069C21.7001 11.5069 22.7001 13.2069 24.8001 15.0069C26.0001 16.1069 27.6001 17.2069 29.3001 18.2069C31.1001 19.2069 32.8001 20.0069 34.3001 20.6069C36.9001 21.5069 38.9001 21.6069 39.4001 20.7069Z" stroke="#D80000" stroke-miterlimit="10" stroke-linecap="round" stroke-linejoin="round"/>
<path d="M37.8 23.4067C41.7 23.8067 44.5 24.9067 44.5 26.2067C44.5 27.2067 42.7 28.2067 40 28.7067C38.5 29.1067 36.5 29.3067 34.5 29.3067C32.5 29.3067 30.5 29.1067 29 28.8067C26.3 28.3067 24.5 27.3067 24.5 26.3067C24.5 25.2067 26.3 24.3067 29 23.8067" stroke="#D80000" stroke-miterlimit="10"/>
<path d="M44.4998 26.3068V31.3068C44.4998 31.4068 44.4998 31.4068 44.4998 31.5068C44.4998 31.6068 44.4998 31.6068 44.3998 31.7068C44.3998 31.8068 44.2998 31.8068 44.2998 31.9068C44.2998 32.0068 44.1998 32.0068 44.1998 32.1068C44.0998 32.2068 43.9998 32.3068 43.8998 32.4068C43.8998 32.4068 43.7998 32.5068 43.6998 32.5068C43.5998 32.5068 43.5998 32.6068 43.4998 32.6068C43.3998 32.6068 43.2998 32.7068 43.2998 32.7068C43.1998 32.8068 42.9998 32.8068 42.8998 32.9068C42.6998 33.0068 42.4998 33.1068 42.3998 33.1068C42.2998 33.1068 42.1998 33.2068 42.0998 33.2068C41.8998 33.3068 41.7998 33.3068 41.5998 33.4068C41.3998 33.5068 41.0998 33.5068 40.8998 33.6068C40.7998 33.6068 40.6998 33.7068 40.5998 33.7068C40.3998 33.7068 40.2998 33.8068 40.0998 33.8068C39.7998 33.9068 39.4998 33.9068 39.0998 34.0068C38.7998 34.0068 38.4998 34.1068 38.1998 34.1068C37.7998 34.2068 37.3998 34.2068 36.8998 34.2068C36.6998 34.2068 36.5998 34.2068 36.3998 34.2068C36.0998 34.2068 35.7998 34.2068 35.5998 34.2068C35.2998 34.2068 34.8998 34.2068 34.5998 34.2068C34.2998 34.2068 33.8998 34.2068 33.5998 34.2068C33.2998 34.2068 32.9998 34.2068 32.7998 34.2068C32.5998 34.2068 32.4998 34.2068 32.2998 34.2068C31.8998 34.2068 31.3998 34.1068 30.9998 34.1068C30.6998 34.1068 30.3998 34.0068 30.0998 34.0068C29.7998 34.0068 29.3998 33.9068 29.0998 33.8068C28.8998 33.8068 28.7998 33.7068 28.5998 33.7068C28.4998 33.7068 28.3998 33.7068 28.2998 33.6068C27.9998 33.5068 27.7998 33.5068 27.5998 33.4068C27.3998 33.4068 27.2998 33.3068 27.0998 33.2068C26.9998 33.2068 26.8998 33.1068 26.7998 33.1068C26.5998 33.0068 26.3998 33.0068 26.2998 32.9068C26.1998 32.8068 25.9998 32.8068 25.8998 32.7068C25.6998 32.6068 25.5998 32.5068 25.4998 32.4068C25.3998 32.4068 25.3998 32.3068 25.2998 32.3068C25.1998 32.2068 25.0998 32.1068 24.9998 32.0068C24.9998 31.9068 24.8998 31.9068 24.8998 31.8068C24.8998 31.7068 24.7998 31.7068 24.7998 31.6068C24.7998 31.6068 24.7998 31.5068 24.7998 31.4068C24.7998 31.3068 24.7998 31.3068 24.7998 31.2068V26.2068C24.7998 27.2068 26.5998 28.2068 29.2998 28.7068C30.8998 29.0068 32.7998 29.2068 34.7998 29.2068C36.7998 29.2068 38.7998 29.0068 40.2998 28.7068C42.6998 28.2068 44.4998 27.3068 44.4998 26.3068Z" stroke="#D80000" stroke-miterlimit="10"/>
</svg>
