<svg width="49" height="48" viewBox="0 0 49 48" fill="none" xmlns="http://www.w3.org/2000/svg">
<path d="M36.0647 23.4187C31.4175 23.4187 27.6294 27.1986 27.6294 31.854C27.6294 36.5093 31.4093 40.2892 36.0647 40.2892C40.7118 40.2892 44.4999 36.5093 44.4999 31.854C44.4999 27.1986 40.7118 23.4187 36.0647 23.4187ZM36.0647 38.2765C32.522 38.2765 29.6339 35.3884 29.6339 31.8458C29.6339 28.3031 32.522 25.415 36.0647 25.415C39.6073 25.415 42.4954 28.3031 42.4954 31.8458C42.4954 35.3884 39.6073 38.2765 36.0647 38.2765Z" fill="#D80000"/>
<path d="M39.2231 30.8476H35.0423L35.6232 30.2094C35.9995 29.8003 35.9668 29.1703 35.5577 28.794C35.1486 28.4176 34.5187 28.4503 34.1423 28.8594L32.0314 31.1748C31.6796 31.5594 31.6796 32.1403 32.0314 32.5248L34.1423 34.8402C34.3387 35.0611 34.6086 35.1675 34.8868 35.1675C35.1241 35.1675 35.3695 35.0775 35.5659 34.9056C35.975 34.5293 36.0077 33.8993 35.6314 33.4902L35.0505 32.8521H39.2231C39.7794 32.8521 40.2294 32.4021 40.2294 31.8457C40.2294 31.2894 39.7794 30.8476 39.2231 30.8476Z" fill="#D80000"/>
<path d="M32.1866 6H10.0962C7.01176 6 4.5 8.51176 4.5 11.5962V11.6781C4.5 13.5844 5.45725 15.2698 6.92176 16.2761C5.46543 17.2988 4.5 18.9924 4.5 20.9233C4.5 22.8378 5.46543 24.5232 6.92176 25.5377C5.45725 26.5604 4.5 28.254 4.5 30.1931C4.5 33.2939 7.01994 35.8139 10.1208 35.8139H25.2241C25.7804 35.8139 26.2304 35.3639 26.2304 34.8075C26.2304 34.2512 25.7804 33.8012 25.2241 33.8012H10.1126C8.11628 33.8012 6.49632 32.1812 6.49632 30.1522C6.49632 28.1559 8.11628 26.5359 10.1126 26.5359H26.9095C27.4658 26.5359 27.9158 26.0859 27.9158 25.5296C27.9158 24.9732 27.4658 24.5232 26.9095 24.5232H10.1126C8.11628 24.5232 6.49632 22.9033 6.49632 20.8742C6.49632 18.8779 8.11628 17.2579 10.1126 17.2579H32.1621C34.1584 17.2579 35.7784 18.8779 35.7784 20.9069C35.7784 21.4633 36.2284 21.8887 36.7847 21.8887C37.3411 21.8887 37.7911 21.4224 37.7911 20.866C37.7911 18.9597 36.8338 17.2743 35.3775 16.2598C36.8338 15.2452 37.7911 13.568 37.7911 11.6617V11.5799C37.7829 8.51176 35.2711 6 32.1866 6ZM35.7784 11.6781C35.7784 13.658 34.1666 15.2698 32.1866 15.2698H32.1621H10.1126H10.0881C8.1081 15.2698 6.49632 13.658 6.49632 11.6781V11.5962C6.49632 9.61628 8.1081 8.0045 10.0881 8.0045H32.1785C34.1584 8.0045 35.7702 9.61628 35.7702 11.5962V11.6781H35.7784Z" fill="#D80000"/>
<path d="M30.1656 10.6309H20.814C20.2576 10.6309 19.8076 11.0808 19.8076 11.6372C19.8076 12.1936 20.2576 12.6435 20.814 12.6435H30.1737C30.7301 12.6435 31.1801 12.1936 31.1801 11.6372C31.1801 11.0808 30.7219 10.6309 30.1656 10.6309Z" fill="#D80000"/>
<path d="M13.1642 12.7007C13.7516 12.7007 14.2278 12.2245 14.2278 11.6371C14.2278 11.0497 13.7516 10.5735 13.1642 10.5735C12.5768 10.5735 12.1006 11.0497 12.1006 11.6371C12.1006 12.2245 12.5768 12.7007 13.1642 12.7007Z" fill="#D80000"/>
<path d="M31.1719 20.907C31.1719 20.3506 30.7219 19.9006 30.1656 19.9006H20.814C20.2576 19.9006 19.8076 20.3506 19.8076 20.907C19.8076 21.4633 20.2576 21.9133 20.814 21.9133H30.1737C30.7219 21.9051 31.1719 21.4551 31.1719 20.907Z" fill="#D80000"/>
<path d="M13.1642 21.9705C13.7516 21.9705 14.2278 21.4943 14.2278 20.9069C14.2278 20.3195 13.7516 19.8433 13.1642 19.8433C12.5768 19.8433 12.1006 20.3195 12.1006 20.9069C12.1006 21.4943 12.5768 21.9705 13.1642 21.9705Z" fill="#D80000"/>
<path d="M20.814 29.1704C20.2576 29.1704 19.8076 29.6204 19.8076 30.1768C19.8076 30.7331 20.2576 31.1831 20.814 31.1831H25.052C25.6084 31.1831 26.0584 30.7331 26.0584 30.1768C26.0584 29.6204 25.6084 29.1704 25.052 29.1704H20.814Z" fill="#D80000"/>
<path d="M13.1642 31.2403C13.7516 31.2403 14.2278 30.7641 14.2278 30.1766C14.2278 29.5892 13.7516 29.113 13.1642 29.113C12.5768 29.113 12.1006 29.5892 12.1006 30.1766C12.1006 30.7641 12.5768 31.2403 13.1642 31.2403Z" fill="#D80000"/>
</svg>
