<svg width="49" height="48" viewBox="0 0 49 48" fill="none" xmlns="http://www.w3.org/2000/svg">
<path d="M23.26 9.08005H37.02C37.5552 9.04135 38.0925 9.11828 38.5953 9.30561C39.0982 9.49294 39.5548 9.78629 39.9343 10.1657C40.3137 10.5452 40.6071 11.0018 40.7944 11.5047C40.9817 12.0076 41.0587 12.5448 41.02 13.0801C41.02 16.8201 41.02 20.5801 41.02 24.3201C41.02 24.7401 41.14 24.9001 41.54 24.9401C42.5 24.9401 43.54 25.1801 44.44 25.2601C45.34 25.3401 45.48 25.5201 45.48 26.3801C45.48 27.9601 45.48 29.5601 45.48 31.1401C45.4476 33.1913 44.7492 35.1764 43.4902 36.7962C42.2312 38.4159 40.4798 39.5825 38.5 40.1201C38.2637 40.1802 38.0162 40.1802 37.78 40.1201C36.3831 39.7622 35.0886 39.0845 33.9987 38.1403C32.9088 37.1962 32.0534 36.0116 31.5 34.6801C31.4625 34.5443 31.3769 34.4268 31.2591 34.3495C31.1413 34.2722 30.9995 34.2404 30.86 34.2601H9.49997C8.96475 34.2988 8.42747 34.2218 7.92462 34.0345C7.42176 33.8472 6.9651 33.5538 6.58566 33.1744C6.20621 32.7949 5.91286 32.3383 5.72553 31.8354C5.5382 31.3326 5.46127 30.7953 5.49997 30.2601V13.1001C5.46127 12.5648 5.5382 12.0276 5.72553 11.5247C5.91286 11.0218 6.20621 10.5652 6.58566 10.1857C6.9651 9.80629 7.42176 9.51294 7.92462 9.32561C8.42747 9.13828 8.96475 9.06135 9.49997 9.10005L23.26 9.08005ZM39.52 21.7201H6.93997V30.3601C6.90863 30.69 6.9509 31.0228 7.06374 31.3345C7.17657 31.6461 7.35717 31.9289 7.59249 32.1623C7.82782 32.3957 8.11201 32.574 8.42457 32.6842C8.73713 32.7945 9.07028 32.8341 9.39997 32.8001H30.68V26.1201H28.5C28.3954 26.134 28.2891 26.1261 28.1877 26.0967C28.0864 26.0674 27.9923 26.0172 27.9114 25.9495C27.8305 25.8818 27.7646 25.7979 27.7178 25.7033C27.6711 25.6087 27.6446 25.5055 27.64 25.4001C27.64 24.9601 27.96 24.6601 28.5 24.6401H30.92C31.46 24.6401 31.94 24.6401 32.12 25.3201C32.98 25.1801 33.82 25.0801 34.62 24.9001C35.42 24.7201 36.62 24.3801 37.46 24.0601C37.6397 23.9813 37.8338 23.9406 38.03 23.9406C38.2262 23.9406 38.4203 23.9813 38.6 24.0601C38.884 24.1907 39.1784 24.2977 39.48 24.3801L39.52 21.7201ZM39.52 15.7201V13.1001C39.5621 12.759 39.5259 12.4129 39.4142 12.088C39.3024 11.7631 39.118 11.4679 38.8751 11.2249C38.6321 10.982 38.337 10.7976 38.012 10.6859C37.6871 10.5741 37.341 10.5379 37 10.5801H9.21997C8.65881 10.5526 8.10937 10.747 7.69028 11.1212C7.27119 11.4954 7.01606 12.0194 6.97997 12.5801C6.97997 13.6601 6.97997 14.7401 6.97997 15.8401L39.52 15.7201ZM43.98 26.7801C42.0217 26.6571 40.0933 26.2391 38.26 25.5401C38.0781 25.4805 37.8819 25.4805 37.7 25.5401C36.66 25.8201 35.7 26.1401 34.58 26.3801C33.46 26.6201 32.96 26.6401 32.1 26.7801C32.1 28.2401 32.1 29.6801 32.1 31.1201C32.1427 32.7727 32.6964 34.3715 33.6848 35.6966C34.6733 37.0218 36.048 38.0081 37.62 38.5201C37.8927 38.6101 38.1872 38.6101 38.46 38.5201C39.6706 38.1368 40.7688 37.4622 41.658 36.5556C42.5472 35.6489 43.2003 34.5379 43.56 33.3201C43.9759 31.1733 44.1237 28.9832 44 26.8001L43.98 26.7801ZM39.52 17.2801H6.97997V20.1601H39.52V17.2801Z" fill="#D80000"/>
<path d="M15.0999 24.6399H19.3599C20.0199 24.6399 20.2799 24.8999 20.2799 25.5799V29.5799C20.2799 30.2399 20.0199 30.4999 19.3599 30.5199H10.8399C10.1799 30.5199 9.91992 30.2399 9.91992 29.5799C9.91992 28.2199 9.91992 26.8599 9.91992 25.5799C9.91992 24.8999 10.1599 24.6399 10.8399 24.6399H15.0999ZM18.7799 26.1599H11.4199V29.0599H18.7799V26.1599Z" fill="#D80000"/>
<path d="M23.9602 26.1201H22.5002C22.3998 26.1283 22.2987 26.1159 22.2032 26.0836C22.1077 26.0514 22.0199 26 21.945 25.9326C21.8701 25.8651 21.8097 25.7831 21.7676 25.6916C21.7255 25.6 21.7026 25.5008 21.7002 25.4001C21.6999 25.295 21.7213 25.191 21.7632 25.0947C21.8051 24.9983 21.8665 24.9117 21.9436 24.8403C22.0206 24.7689 22.1117 24.7142 22.2109 24.6797C22.3101 24.6453 22.4155 24.6318 22.5202 24.6401H25.3402C25.5365 24.6401 25.7247 24.718 25.8635 24.8568C26.0022 24.9956 26.0802 25.1838 26.0802 25.3801C26.0802 25.5763 26.0022 25.7646 25.8635 25.9033C25.7247 26.0421 25.5365 26.1201 25.3402 26.1201H23.9202H23.9602Z" fill="#D80000"/>
<path d="M42.1598 29.5199C42.0587 29.7181 41.9381 29.9057 41.7998 30.0799L37.9198 33.9999C37.8558 34.0842 37.7749 34.1543 37.6823 34.2055C37.5897 34.2568 37.4873 34.2881 37.3819 34.2976C37.2765 34.307 37.1702 34.2942 37.07 34.2602C36.9697 34.2262 36.8777 34.1716 36.7998 34.0999L34.7998 32.7399C34.7081 32.6924 34.6274 32.6262 34.5628 32.5456C34.4983 32.465 34.4513 32.3718 34.4249 32.2719C34.3986 32.1721 34.3934 32.0678 34.4097 31.9659C34.426 31.8639 34.4635 31.7665 34.5198 31.6799C34.5735 31.5907 34.6458 31.5143 34.7319 31.4558C34.8179 31.3973 34.9156 31.3581 35.0183 31.341C35.1209 31.3239 35.2261 31.3292 35.3265 31.3567C35.4269 31.3841 35.5201 31.433 35.5998 31.4999C36.0598 31.7999 36.5198 32.0799 36.9398 32.3999C37.3598 32.7199 37.3398 32.5399 37.5198 32.3999L40.7998 29.1199C41.2398 28.6799 41.7798 28.6999 42.0398 29.1199C42.0993 29.2466 42.1397 29.3814 42.1598 29.5199Z" fill="#D80000"/>
</svg>
