<svg width="49" height="48" viewBox="0 0 49 48" fill="none" xmlns="http://www.w3.org/2000/svg">
<g clip-path="url(#clip0_657_120)">
<path d="M7.83317 34.0067V17.3333H39.4998V30.75C40.0681 30.8109 40.6273 30.9373 41.1665 31.1267V9.00667H31.1665V5.67334H16.1665V9.00667H6.1665V35.6667H20.0732C20.3714 35.0477 20.7759 34.4859 21.2682 34.0067H7.83317ZM17.8332 7.33334H29.4998V9.00667H17.8332V7.33334ZM7.83317 10.6667H39.4998V15.6733H7.83317V10.6667ZM38.6665 32.3333C37.2673 32.3369 35.9161 32.8442 34.8602 33.7623C33.8043 34.6805 33.1143 35.9481 32.9165 37.3333H29.4165C29.2528 36.5328 28.8575 35.798 28.2797 35.2202C27.7019 34.6424 26.9671 34.247 26.1665 34.0833V27.25C26.7741 27.1217 27.345 26.8579 27.8365 26.4783L31.7298 30.6667H29.4998V32.3333H34.4998V27.3333H32.8332V29.405L28.9398 25.2183C29.3028 24.5952 29.4959 23.8878 29.4998 23.1667C29.4997 22.3783 29.2759 21.6062 28.8544 20.9399C28.4329 20.2737 27.8311 19.7407 27.1188 19.4029C26.4065 19.065 25.613 18.9362 24.8304 19.0313C24.0478 19.1264 23.3082 19.4416 22.6976 19.9403C22.087 20.439 21.6304 21.1006 21.3808 21.8484C21.1312 22.5962 21.0989 23.3995 21.2877 24.165C21.4764 24.9304 21.8784 25.6266 22.447 26.1727C23.0156 26.7188 23.7274 27.0923 24.4998 27.25V34.0833C23.7624 34.2341 23.0796 34.5817 22.5239 35.0894C21.9682 35.5971 21.5604 36.2458 21.3438 36.9666C21.1272 37.6874 21.1099 38.4535 21.2938 39.1833C21.4776 39.9132 21.8557 40.5797 22.388 41.1119C22.9202 41.6441 23.5866 42.0222 24.3165 42.2061C25.0464 42.3899 25.8124 42.3726 26.5332 42.156C27.2541 41.9394 27.9028 41.5316 28.4105 40.9759C28.9181 40.4203 29.2658 39.7374 29.4165 39H32.9165C33.0785 40.1039 33.5542 41.1381 34.2872 41.9793C35.0201 42.8206 35.9794 43.4335 37.0508 43.7451C38.1221 44.0566 39.2605 44.0538 40.3303 43.7368C41.4001 43.4199 42.3562 42.8022 43.085 41.9573C43.8137 41.1124 44.2843 40.0759 44.4407 38.9711C44.5971 37.8664 44.4328 36.74 43.9672 35.726C43.5017 34.712 42.7546 33.8531 41.8148 33.2516C40.8751 32.6502 39.7823 32.3314 38.6665 32.3333ZM22.8332 23.1667C22.8332 22.6722 22.9798 22.1889 23.2545 21.7777C23.5292 21.3666 23.9196 21.0462 24.3765 20.857C24.8333 20.6678 25.3359 20.6182 25.8209 20.7147C26.3059 20.8112 26.7513 21.0493 27.1009 21.3989C27.4506 21.7485 27.6887 22.194 27.7851 22.6789C27.8816 23.1639 27.8321 23.6666 27.6429 24.1234C27.4537 24.5802 27.1332 24.9706 26.7221 25.2453C26.311 25.52 25.8276 25.6667 25.3332 25.6667C24.6704 25.6658 24.035 25.4021 23.5664 24.9335C23.0977 24.4648 22.8341 23.8294 22.8332 23.1667ZM25.3332 40.6667C24.8387 40.6667 24.3554 40.52 23.9442 40.2453C23.5331 39.9706 23.2127 39.5802 23.0235 39.1234C22.8343 38.6666 22.7847 38.1639 22.8812 37.6789C22.9777 37.194 23.2158 36.7485 23.5654 36.3989C23.915 36.0493 24.3605 35.8112 24.8454 35.7147C25.3304 35.6182 25.8331 35.6678 26.2899 35.857C26.7467 36.0462 27.1371 36.3666 27.4118 36.7777C27.6865 37.1889 27.8332 37.6722 27.8332 38.1667C27.8323 38.8294 27.5686 39.4648 27.1 39.9335C26.6313 40.4021 25.9959 40.6658 25.3332 40.6667ZM38.6665 42.3333C37.8424 42.3333 37.0368 42.089 36.3516 41.6311C35.6664 41.1733 35.1324 40.5225 34.817 39.7612C34.5016 38.9998 34.4191 38.162 34.5799 37.3538C34.7407 36.5455 35.1375 35.8031 35.7202 35.2204C36.3029 34.6377 37.0454 34.2408 37.8536 34.0801C38.6619 33.9193 39.4997 34.0018 40.261 34.3172C41.0224 34.6325 41.6731 35.1666 42.131 35.8518C42.5888 36.537 42.8332 37.3426 42.8332 38.1667C42.8323 39.2715 42.393 40.3308 41.6118 41.112C40.8306 41.8932 39.7713 42.3325 38.6665 42.3333ZM41.1665 38.1667C41.1665 38.6611 41.0199 39.1445 40.7452 39.5556C40.4705 39.9667 40.08 40.2871 39.6232 40.4764C39.1664 40.6656 38.6637 40.7151 38.1788 40.6186C37.6938 40.5222 37.2484 40.2841 36.8987 39.9344C36.5491 39.5848 36.311 39.1393 36.2145 38.6544C36.1181 38.1694 36.1676 37.6668 36.3568 37.21C36.546 36.7531 36.8665 36.3627 37.2776 36.088C37.6887 35.8133 38.1721 35.6667 38.6665 35.6667C39.3293 35.6676 39.9646 35.9312 40.4333 36.3999C40.9019 36.8685 41.1656 37.5039 41.1665 38.1667Z" fill="#D80000"/>
</g>
<defs>
<clipPath id="clip0_657_120">
<rect width="40" height="40" fill="white" transform="translate(4.5 4)"/>
</clipPath>
</defs>
</svg>
